<mxfile host="app.diagrams.net" modified="2022-07-26T13:32:43.409Z" agent="5.0 (Windows NT 10.0; Win64; x64) AppleWebKit/537.36 (KHTML, like Gecko) Chrome/103.0.0.0 Safari/537.36" etag="FnklAJDFfuGRUTWrCpLz" version="20.2.0" type="github">
  <diagram id="rq45g_CgKhSR9ghjNdwA" name="Page-1">
    <mxGraphModel dx="1504" dy="1744" grid="1" gridSize="10" guides="1" tooltips="1" connect="1" arrows="1" fold="1" page="1" pageScale="1" pageWidth="850" pageHeight="1100" math="0" shadow="0">
      <root>
        <mxCell id="0" />
        <mxCell id="1" parent="0" />
        <mxCell id="FvSjRpcj_BzHOOQhWM-Y-24" style="edgeStyle=orthogonalEdgeStyle;rounded=0;orthogonalLoop=1;jettySize=auto;html=1;exitX=0.5;exitY=1;exitDx=0;exitDy=0;entryX=0.5;entryY=0;entryDx=0;entryDy=0;" edge="1" parent="1" source="FvSjRpcj_BzHOOQhWM-Y-1" target="FvSjRpcj_BzHOOQhWM-Y-3">
          <mxGeometry relative="1" as="geometry">
            <mxPoint x="85" y="130" as="targetPoint" />
          </mxGeometry>
        </mxCell>
        <mxCell id="FvSjRpcj_BzHOOQhWM-Y-1" value="Welcome&amp;nbsp;" style="rounded=1;whiteSpace=wrap;html=1;" vertex="1" parent="1">
          <mxGeometry x="40" y="50" width="90" height="40" as="geometry" />
        </mxCell>
        <mxCell id="FvSjRpcj_BzHOOQhWM-Y-26" style="edgeStyle=orthogonalEdgeStyle;rounded=0;orthogonalLoop=1;jettySize=auto;html=1;entryX=0.5;entryY=1;entryDx=0;entryDy=0;" edge="1" parent="1" source="FvSjRpcj_BzHOOQhWM-Y-3" target="FvSjRpcj_BzHOOQhWM-Y-4">
          <mxGeometry relative="1" as="geometry" />
        </mxCell>
        <mxCell id="FvSjRpcj_BzHOOQhWM-Y-3" value="Join Now" style="rounded=1;whiteSpace=wrap;html=1;" vertex="1" parent="1">
          <mxGeometry x="40" y="150" width="90" height="30" as="geometry" />
        </mxCell>
        <mxCell id="FvSjRpcj_BzHOOQhWM-Y-117" style="edgeStyle=orthogonalEdgeStyle;rounded=0;orthogonalLoop=1;jettySize=auto;html=1;exitX=1;exitY=0.5;exitDx=0;exitDy=0;entryX=0;entryY=0.5;entryDx=0;entryDy=0;" edge="1" parent="1" source="FvSjRpcj_BzHOOQhWM-Y-4" target="FvSjRpcj_BzHOOQhWM-Y-7">
          <mxGeometry relative="1" as="geometry" />
        </mxCell>
        <mxCell id="FvSjRpcj_BzHOOQhWM-Y-4" value="Login" style="rounded=1;whiteSpace=wrap;html=1;arcSize=0;" vertex="1" parent="1">
          <mxGeometry x="160" y="90" width="90" height="40" as="geometry" />
        </mxCell>
        <mxCell id="FvSjRpcj_BzHOOQhWM-Y-5" value="Popular" style="rounded=1;whiteSpace=wrap;html=1;" vertex="1" parent="1">
          <mxGeometry x="300" y="50" width="90" height="40" as="geometry" />
        </mxCell>
        <mxCell id="FvSjRpcj_BzHOOQhWM-Y-6" value="New" style="rounded=1;whiteSpace=wrap;html=1;" vertex="1" parent="1">
          <mxGeometry x="300" y="100" width="90" height="40" as="geometry" />
        </mxCell>
        <mxCell id="FvSjRpcj_BzHOOQhWM-Y-7" value="For you" style="rounded=1;whiteSpace=wrap;html=1;" vertex="1" parent="1">
          <mxGeometry x="300" y="150" width="90" height="40" as="geometry" />
        </mxCell>
        <mxCell id="FvSjRpcj_BzHOOQhWM-Y-8" value="On sale" style="rounded=1;whiteSpace=wrap;html=1;" vertex="1" parent="1">
          <mxGeometry x="300" y="200" width="90" height="40" as="geometry" />
        </mxCell>
        <mxCell id="FvSjRpcj_BzHOOQhWM-Y-9" value="Categories&amp;nbsp; (All)" style="rounded=1;whiteSpace=wrap;html=1;" vertex="1" parent="1">
          <mxGeometry x="440" y="50" width="90" height="40" as="geometry" />
        </mxCell>
        <mxCell id="FvSjRpcj_BzHOOQhWM-Y-10" value="Category (One)" style="rounded=1;whiteSpace=wrap;html=1;" vertex="1" parent="1">
          <mxGeometry x="440" y="110" width="90" height="40" as="geometry" />
        </mxCell>
        <mxCell id="FvSjRpcj_BzHOOQhWM-Y-11" value="Sub categories" style="rounded=1;whiteSpace=wrap;html=1;" vertex="1" parent="1">
          <mxGeometry x="440" y="170" width="90" height="40" as="geometry" />
        </mxCell>
        <mxCell id="FvSjRpcj_BzHOOQhWM-Y-12" value="Courses" style="rounded=1;whiteSpace=wrap;html=1;" vertex="1" parent="1">
          <mxGeometry x="440" y="240" width="90" height="40" as="geometry" />
        </mxCell>
        <mxCell id="FvSjRpcj_BzHOOQhWM-Y-35" style="edgeStyle=orthogonalEdgeStyle;rounded=0;orthogonalLoop=1;jettySize=auto;html=1;entryX=0;entryY=0.75;entryDx=0;entryDy=0;" edge="1" parent="1" source="FvSjRpcj_BzHOOQhWM-Y-13" target="FvSjRpcj_BzHOOQhWM-Y-22">
          <mxGeometry relative="1" as="geometry">
            <Array as="points">
              <mxPoint x="405" y="470" />
              <mxPoint x="530" y="470" />
              <mxPoint x="530" y="468" />
            </Array>
          </mxGeometry>
        </mxCell>
        <mxCell id="FvSjRpcj_BzHOOQhWM-Y-13" value="Search" style="rounded=1;whiteSpace=wrap;html=1;" vertex="1" parent="1">
          <mxGeometry x="360" y="300" width="90" height="40" as="geometry" />
        </mxCell>
        <mxCell id="FvSjRpcj_BzHOOQhWM-Y-34" style="edgeStyle=orthogonalEdgeStyle;rounded=0;orthogonalLoop=1;jettySize=auto;html=1;entryX=0.005;entryY=0.595;entryDx=0;entryDy=0;entryPerimeter=0;" edge="1" parent="1" source="FvSjRpcj_BzHOOQhWM-Y-14" target="FvSjRpcj_BzHOOQhWM-Y-22">
          <mxGeometry relative="1" as="geometry">
            <Array as="points">
              <mxPoint x="490" y="433" />
            </Array>
          </mxGeometry>
        </mxCell>
        <mxCell id="FvSjRpcj_BzHOOQhWM-Y-14" value="Sort" style="rounded=1;whiteSpace=wrap;html=1;" vertex="1" parent="1">
          <mxGeometry x="440" y="360" width="90" height="40" as="geometry" />
        </mxCell>
        <mxCell id="FvSjRpcj_BzHOOQhWM-Y-15" value="About" style="rounded=1;whiteSpace=wrap;html=1;" vertex="1" parent="1">
          <mxGeometry x="570" y="300" width="90" height="40" as="geometry" />
        </mxCell>
        <mxCell id="FvSjRpcj_BzHOOQhWM-Y-16" value="Instructors" style="rounded=1;whiteSpace=wrap;html=1;" vertex="1" parent="1">
          <mxGeometry x="570" y="360" width="90" height="40" as="geometry" />
        </mxCell>
        <mxCell id="FvSjRpcj_BzHOOQhWM-Y-17" value="Lectures" style="rounded=1;whiteSpace=wrap;html=1;" vertex="1" parent="1">
          <mxGeometry x="570" y="420" width="90" height="40" as="geometry" />
        </mxCell>
        <mxCell id="FvSjRpcj_BzHOOQhWM-Y-36" style="edgeStyle=orthogonalEdgeStyle;rounded=0;orthogonalLoop=1;jettySize=auto;html=1;entryX=1;entryY=0.5;entryDx=0;entryDy=0;exitX=0.01;exitY=0.881;exitDx=0;exitDy=0;exitPerimeter=0;" edge="1" parent="1" source="FvSjRpcj_BzHOOQhWM-Y-22" target="FvSjRpcj_BzHOOQhWM-Y-19">
          <mxGeometry relative="1" as="geometry" />
        </mxCell>
        <mxCell id="FvSjRpcj_BzHOOQhWM-Y-18" value="Discussions" style="rounded=1;whiteSpace=wrap;html=1;" vertex="1" parent="1">
          <mxGeometry x="570" y="480" width="90" height="40" as="geometry" />
        </mxCell>
        <mxCell id="FvSjRpcj_BzHOOQhWM-Y-19" value="Play intro Video" style="rounded=1;whiteSpace=wrap;html=1;" vertex="1" parent="1">
          <mxGeometry x="410" y="480" width="90" height="40" as="geometry" />
        </mxCell>
        <mxCell id="FvSjRpcj_BzHOOQhWM-Y-21" value="" style="swimlane;startSize=0;" vertex="1" parent="1">
          <mxGeometry x="280" y="40" width="130" height="210" as="geometry" />
        </mxCell>
        <mxCell id="FvSjRpcj_BzHOOQhWM-Y-22" value="" style="swimlane;startSize=0;" vertex="1" parent="1">
          <mxGeometry x="555" y="280" width="125" height="250" as="geometry" />
        </mxCell>
        <mxCell id="FvSjRpcj_BzHOOQhWM-Y-52" value="Course info (unenrolled)" style="text;html=1;align=center;verticalAlign=middle;resizable=0;points=[];autosize=1;strokeColor=none;fillColor=none;" vertex="1" parent="FvSjRpcj_BzHOOQhWM-Y-22">
          <mxGeometry x="-8.75" y="-5" width="150" height="30" as="geometry" />
        </mxCell>
        <mxCell id="FvSjRpcj_BzHOOQhWM-Y-27" value="Navigation SideBar" style="rounded=1;whiteSpace=wrap;html=1;" vertex="1" parent="1">
          <mxGeometry x="260" y="-50" width="520" height="60" as="geometry" />
        </mxCell>
        <mxCell id="FvSjRpcj_BzHOOQhWM-Y-28" value="Settings" style="whiteSpace=wrap;html=1;rounded=1;" vertex="1" parent="1">
          <mxGeometry x="900" y="-50" width="120" height="60" as="geometry" />
        </mxCell>
        <mxCell id="FvSjRpcj_BzHOOQhWM-Y-30" value="" style="endArrow=classic;startArrow=classic;html=1;rounded=0;entryX=0;entryY=0.5;entryDx=0;entryDy=0;exitX=1;exitY=0.5;exitDx=0;exitDy=0;" edge="1" parent="1" source="FvSjRpcj_BzHOOQhWM-Y-27" target="FvSjRpcj_BzHOOQhWM-Y-28">
          <mxGeometry width="50" height="50" relative="1" as="geometry">
            <mxPoint x="840" y="130" as="sourcePoint" />
            <mxPoint x="850" y="-10" as="targetPoint" />
            <Array as="points" />
          </mxGeometry>
        </mxCell>
        <mxCell id="FvSjRpcj_BzHOOQhWM-Y-31" value="" style="endArrow=classic;startArrow=classic;html=1;rounded=0;exitX=0.5;exitY=0;exitDx=0;exitDy=0;entryX=0;entryY=0.75;entryDx=0;entryDy=0;" edge="1" parent="1" source="FvSjRpcj_BzHOOQhWM-Y-13" target="FvSjRpcj_BzHOOQhWM-Y-12">
          <mxGeometry width="50" height="50" relative="1" as="geometry">
            <mxPoint x="460" y="270" as="sourcePoint" />
            <mxPoint x="510" y="220" as="targetPoint" />
            <Array as="points" />
          </mxGeometry>
        </mxCell>
        <mxCell id="FvSjRpcj_BzHOOQhWM-Y-32" value="" style="endArrow=classic;startArrow=classic;html=1;rounded=0;entryX=0.5;entryY=1;entryDx=0;entryDy=0;exitX=0.5;exitY=0;exitDx=0;exitDy=0;" edge="1" parent="1" source="FvSjRpcj_BzHOOQhWM-Y-14" target="FvSjRpcj_BzHOOQhWM-Y-12">
          <mxGeometry width="50" height="50" relative="1" as="geometry">
            <mxPoint x="460" y="270" as="sourcePoint" />
            <mxPoint x="510" y="220" as="targetPoint" />
          </mxGeometry>
        </mxCell>
        <mxCell id="FvSjRpcj_BzHOOQhWM-Y-38" value="All courses" style="rounded=1;whiteSpace=wrap;html=1;" vertex="1" parent="1">
          <mxGeometry x="732.5" y="70" width="90" height="40" as="geometry" />
        </mxCell>
        <mxCell id="FvSjRpcj_BzHOOQhWM-Y-43" value="" style="swimlane;startSize=0;" vertex="1" parent="1">
          <mxGeometry x="720" y="60" width="122.5" height="260" as="geometry" />
        </mxCell>
        <mxCell id="FvSjRpcj_BzHOOQhWM-Y-39" value="To Learn" style="rounded=1;whiteSpace=wrap;html=1;" vertex="1" parent="FvSjRpcj_BzHOOQhWM-Y-43">
          <mxGeometry x="12.5" y="60" width="90" height="40" as="geometry" />
        </mxCell>
        <mxCell id="FvSjRpcj_BzHOOQhWM-Y-40" value="Learned" style="rounded=1;whiteSpace=wrap;html=1;" vertex="1" parent="FvSjRpcj_BzHOOQhWM-Y-43">
          <mxGeometry x="12.5" y="110" width="90" height="40" as="geometry" />
        </mxCell>
        <mxCell id="FvSjRpcj_BzHOOQhWM-Y-41" value="Wishlist" style="rounded=1;whiteSpace=wrap;html=1;" vertex="1" parent="FvSjRpcj_BzHOOQhWM-Y-43">
          <mxGeometry x="12.5" y="160" width="90" height="40" as="geometry" />
        </mxCell>
        <mxCell id="FvSjRpcj_BzHOOQhWM-Y-42" value="All courses" style="rounded=1;whiteSpace=wrap;html=1;" vertex="1" parent="FvSjRpcj_BzHOOQhWM-Y-43">
          <mxGeometry x="16.25" y="210" width="90" height="40" as="geometry" />
        </mxCell>
        <mxCell id="FvSjRpcj_BzHOOQhWM-Y-44" value="Add Favourite" style="whiteSpace=wrap;html=1;rounded=1;" vertex="1" parent="1">
          <mxGeometry x="882.5" y="60" width="120" height="40" as="geometry" />
        </mxCell>
        <mxCell id="FvSjRpcj_BzHOOQhWM-Y-45" value="Offline Only" style="whiteSpace=wrap;html=1;rounded=1;" vertex="1" parent="1">
          <mxGeometry x="882.5" y="130" width="120" height="40" as="geometry" />
        </mxCell>
        <mxCell id="FvSjRpcj_BzHOOQhWM-Y-46" value="Search" style="whiteSpace=wrap;html=1;rounded=1;" vertex="1" parent="1">
          <mxGeometry x="882.5" y="200" width="120" height="40" as="geometry" />
        </mxCell>
        <mxCell id="FvSjRpcj_BzHOOQhWM-Y-47" value="Sort" style="whiteSpace=wrap;html=1;rounded=1;" vertex="1" parent="1">
          <mxGeometry x="882.5" y="270" width="120" height="40" as="geometry" />
        </mxCell>
        <mxCell id="FvSjRpcj_BzHOOQhWM-Y-48" value="" style="endArrow=classic;startArrow=classic;html=1;rounded=0;entryX=0;entryY=0.5;entryDx=0;entryDy=0;exitX=1.029;exitY=0.083;exitDx=0;exitDy=0;exitPerimeter=0;" edge="1" parent="1" source="FvSjRpcj_BzHOOQhWM-Y-43" target="FvSjRpcj_BzHOOQhWM-Y-44">
          <mxGeometry width="50" height="50" relative="1" as="geometry">
            <mxPoint x="842.5" y="90" as="sourcePoint" />
            <mxPoint x="872.5" y="99" as="targetPoint" />
            <Array as="points" />
          </mxGeometry>
        </mxCell>
        <mxCell id="FvSjRpcj_BzHOOQhWM-Y-49" value="" style="endArrow=classic;startArrow=classic;html=1;rounded=0;entryX=0;entryY=0.5;entryDx=0;entryDy=0;" edge="1" parent="1" target="FvSjRpcj_BzHOOQhWM-Y-45">
          <mxGeometry width="50" height="50" relative="1" as="geometry">
            <mxPoint x="850" y="150" as="sourcePoint" />
            <mxPoint x="892.5" y="100" as="targetPoint" />
            <Array as="points" />
          </mxGeometry>
        </mxCell>
        <mxCell id="FvSjRpcj_BzHOOQhWM-Y-50" value="" style="endArrow=classic;startArrow=classic;html=1;rounded=0;entryX=0;entryY=0.5;entryDx=0;entryDy=0;" edge="1" parent="1" target="FvSjRpcj_BzHOOQhWM-Y-46">
          <mxGeometry width="50" height="50" relative="1" as="geometry">
            <mxPoint x="850" y="220" as="sourcePoint" />
            <mxPoint x="902.5" y="110" as="targetPoint" />
            <Array as="points" />
          </mxGeometry>
        </mxCell>
        <mxCell id="FvSjRpcj_BzHOOQhWM-Y-51" value="" style="endArrow=classic;startArrow=classic;html=1;rounded=0;entryX=0;entryY=0.25;entryDx=0;entryDy=0;" edge="1" parent="1" target="FvSjRpcj_BzHOOQhWM-Y-47">
          <mxGeometry width="50" height="50" relative="1" as="geometry">
            <mxPoint x="850" y="280" as="sourcePoint" />
            <mxPoint x="912.5" y="120" as="targetPoint" />
            <Array as="points" />
          </mxGeometry>
        </mxCell>
        <mxCell id="FvSjRpcj_BzHOOQhWM-Y-53" value="" style="endArrow=classic;startArrow=classic;html=1;rounded=0;exitX=0.415;exitY=0.003;exitDx=0;exitDy=0;exitPerimeter=0;" edge="1" parent="1" source="FvSjRpcj_BzHOOQhWM-Y-43">
          <mxGeometry width="50" height="50" relative="1" as="geometry">
            <mxPoint x="840" y="290" as="sourcePoint" />
            <mxPoint x="770" y="14" as="targetPoint" />
            <Array as="points" />
          </mxGeometry>
        </mxCell>
        <mxCell id="FvSjRpcj_BzHOOQhWM-Y-70" value="" style="edgeStyle=orthogonalEdgeStyle;rounded=0;orthogonalLoop=1;jettySize=auto;html=1;" edge="1" parent="1" source="FvSjRpcj_BzHOOQhWM-Y-54" target="FvSjRpcj_BzHOOQhWM-Y-69">
          <mxGeometry relative="1" as="geometry">
            <Array as="points">
              <mxPoint x="770" y="410" />
            </Array>
          </mxGeometry>
        </mxCell>
        <mxCell id="FvSjRpcj_BzHOOQhWM-Y-54" value="Announcements" style="whiteSpace=wrap;html=1;rounded=1;" vertex="1" parent="1">
          <mxGeometry x="850" y="380" width="120" height="60" as="geometry" />
        </mxCell>
        <mxCell id="FvSjRpcj_BzHOOQhWM-Y-55" value="Course" style="whiteSpace=wrap;html=1;rounded=1;" vertex="1" parent="1">
          <mxGeometry x="850" y="450" width="120" height="60" as="geometry" />
        </mxCell>
        <mxCell id="FvSjRpcj_BzHOOQhWM-Y-68" style="edgeStyle=orthogonalEdgeStyle;rounded=0;orthogonalLoop=1;jettySize=auto;html=1;exitX=0.5;exitY=1;exitDx=0;exitDy=0;entryX=0.5;entryY=1;entryDx=0;entryDy=0;" edge="1" parent="1" source="FvSjRpcj_BzHOOQhWM-Y-56" target="FvSjRpcj_BzHOOQhWM-Y-22">
          <mxGeometry relative="1" as="geometry" />
        </mxCell>
        <mxCell id="FvSjRpcj_BzHOOQhWM-Y-56" value="Instructor" style="whiteSpace=wrap;html=1;rounded=1;" vertex="1" parent="1">
          <mxGeometry x="850" y="520" width="120" height="60" as="geometry" />
        </mxCell>
        <mxCell id="FvSjRpcj_BzHOOQhWM-Y-58" value="Notes" style="whiteSpace=wrap;html=1;rounded=1;" vertex="1" parent="1">
          <mxGeometry x="1010" y="460" width="120" height="40" as="geometry" />
        </mxCell>
        <mxCell id="FvSjRpcj_BzHOOQhWM-Y-60" value="" style="swimlane;startSize=0;" vertex="1" parent="1">
          <mxGeometry x="842.5" y="360" width="137.5" height="230" as="geometry" />
        </mxCell>
        <mxCell id="FvSjRpcj_BzHOOQhWM-Y-65" value="About" style="text;html=1;align=center;verticalAlign=middle;resizable=0;points=[];autosize=1;strokeColor=none;fillColor=none;" vertex="1" parent="1">
          <mxGeometry x="865" y="355" width="50" height="30" as="geometry" />
        </mxCell>
        <mxCell id="FvSjRpcj_BzHOOQhWM-Y-66" value="" style="swimlane;startSize=0;" vertex="1" parent="1">
          <mxGeometry x="822.5" y="335" width="340" height="290" as="geometry" />
        </mxCell>
        <mxCell id="FvSjRpcj_BzHOOQhWM-Y-67" value="Course info (enrolled)" style="text;html=1;align=center;verticalAlign=middle;resizable=0;points=[];autosize=1;strokeColor=none;fillColor=none;" vertex="1" parent="FvSjRpcj_BzHOOQhWM-Y-66">
          <mxGeometry x="90" y="-5" width="140" height="30" as="geometry" />
        </mxCell>
        <mxCell id="FvSjRpcj_BzHOOQhWM-Y-59" value="Discussion" style="whiteSpace=wrap;html=1;rounded=1;" vertex="1" parent="FvSjRpcj_BzHOOQhWM-Y-66">
          <mxGeometry x="187.5" y="205" width="120" height="40" as="geometry" />
        </mxCell>
        <mxCell id="FvSjRpcj_BzHOOQhWM-Y-57" value="Lectures" style="whiteSpace=wrap;html=1;rounded=1;" vertex="1" parent="FvSjRpcj_BzHOOQhWM-Y-66">
          <mxGeometry x="187.5" y="35" width="120" height="40" as="geometry" />
        </mxCell>
        <mxCell id="FvSjRpcj_BzHOOQhWM-Y-69" value="Comments" style="whiteSpace=wrap;html=1;rounded=1;" vertex="1" parent="1">
          <mxGeometry x="730" y="365" width="70" height="30" as="geometry" />
        </mxCell>
        <mxCell id="FvSjRpcj_BzHOOQhWM-Y-71" value="Like" style="whiteSpace=wrap;html=1;rounded=1;" vertex="1" parent="1">
          <mxGeometry x="742.5" y="430" width="70" height="30" as="geometry" />
        </mxCell>
        <mxCell id="FvSjRpcj_BzHOOQhWM-Y-73" value="" style="endArrow=classic;html=1;rounded=0;entryX=0.404;entryY=0.067;entryDx=0;entryDy=0;entryPerimeter=0;" edge="1" parent="1" target="FvSjRpcj_BzHOOQhWM-Y-71">
          <mxGeometry width="50" height="50" relative="1" as="geometry">
            <mxPoint x="770" y="410" as="sourcePoint" />
            <mxPoint x="940" y="390" as="targetPoint" />
          </mxGeometry>
        </mxCell>
        <mxCell id="FvSjRpcj_BzHOOQhWM-Y-74" value="Add to favourite" style="whiteSpace=wrap;html=1;rounded=1;" vertex="1" parent="1">
          <mxGeometry x="1120" y="270" width="120" height="40" as="geometry" />
        </mxCell>
        <mxCell id="FvSjRpcj_BzHOOQhWM-Y-75" value="" style="endArrow=classic;startArrow=classic;html=1;rounded=0;entryX=0;entryY=0.5;entryDx=0;entryDy=0;" edge="1" parent="1" target="FvSjRpcj_BzHOOQhWM-Y-74">
          <mxGeometry width="50" height="50" relative="1" as="geometry">
            <mxPoint x="1080" y="330" as="sourcePoint" />
            <mxPoint x="892.5" y="290" as="targetPoint" />
            <Array as="points">
              <mxPoint x="1078" y="290" />
            </Array>
          </mxGeometry>
        </mxCell>
        <mxCell id="FvSjRpcj_BzHOOQhWM-Y-83" style="edgeStyle=orthogonalEdgeStyle;rounded=0;orthogonalLoop=1;jettySize=auto;html=1;entryX=0;entryY=0.5;entryDx=0;entryDy=0;" edge="1" parent="1" source="FvSjRpcj_BzHOOQhWM-Y-76" target="FvSjRpcj_BzHOOQhWM-Y-82">
          <mxGeometry relative="1" as="geometry" />
        </mxCell>
        <mxCell id="FvSjRpcj_BzHOOQhWM-Y-76" value="Audio Only" style="whiteSpace=wrap;html=1;rounded=1;" vertex="1" parent="1">
          <mxGeometry x="1200" y="360" width="120" height="40" as="geometry" />
        </mxCell>
        <mxCell id="FvSjRpcj_BzHOOQhWM-Y-85" style="edgeStyle=orthogonalEdgeStyle;rounded=0;orthogonalLoop=1;jettySize=auto;html=1;exitX=1;exitY=0.5;exitDx=0;exitDy=0;" edge="1" parent="1" source="FvSjRpcj_BzHOOQhWM-Y-77" target="FvSjRpcj_BzHOOQhWM-Y-84">
          <mxGeometry relative="1" as="geometry" />
        </mxCell>
        <mxCell id="FvSjRpcj_BzHOOQhWM-Y-77" value="Download Lectures" style="whiteSpace=wrap;html=1;rounded=1;" vertex="1" parent="1">
          <mxGeometry x="1200" y="420" width="120" height="40" as="geometry" />
        </mxCell>
        <mxCell id="FvSjRpcj_BzHOOQhWM-Y-88" value="" style="edgeStyle=orthogonalEdgeStyle;rounded=0;orthogonalLoop=1;jettySize=auto;html=1;" edge="1" parent="1" source="FvSjRpcj_BzHOOQhWM-Y-78" target="FvSjRpcj_BzHOOQhWM-Y-87">
          <mxGeometry relative="1" as="geometry" />
        </mxCell>
        <mxCell id="FvSjRpcj_BzHOOQhWM-Y-78" value="Delete Downloaded" style="whiteSpace=wrap;html=1;rounded=1;" vertex="1" parent="1">
          <mxGeometry x="1210" y="500" width="120" height="40" as="geometry" />
        </mxCell>
        <mxCell id="FvSjRpcj_BzHOOQhWM-Y-79" value="" style="endArrow=classic;html=1;rounded=0;exitX=1.008;exitY=0.158;exitDx=0;exitDy=0;exitPerimeter=0;entryX=0;entryY=0.5;entryDx=0;entryDy=0;" edge="1" parent="1" source="FvSjRpcj_BzHOOQhWM-Y-66" target="FvSjRpcj_BzHOOQhWM-Y-76">
          <mxGeometry width="50" height="50" relative="1" as="geometry">
            <mxPoint x="1230" y="420" as="sourcePoint" />
            <mxPoint x="1280" y="370" as="targetPoint" />
          </mxGeometry>
        </mxCell>
        <mxCell id="FvSjRpcj_BzHOOQhWM-Y-80" value="" style="endArrow=classic;html=1;rounded=0;exitX=0.993;exitY=0.362;exitDx=0;exitDy=0;exitPerimeter=0;entryX=0;entryY=0.5;entryDx=0;entryDy=0;" edge="1" parent="1" source="FvSjRpcj_BzHOOQhWM-Y-66" target="FvSjRpcj_BzHOOQhWM-Y-77">
          <mxGeometry width="50" height="50" relative="1" as="geometry">
            <mxPoint x="1175.22" y="390.81999999999994" as="sourcePoint" />
            <mxPoint x="1210" y="390" as="targetPoint" />
          </mxGeometry>
        </mxCell>
        <mxCell id="FvSjRpcj_BzHOOQhWM-Y-81" value="" style="endArrow=classic;html=1;rounded=0;exitX=1.01;exitY=0.643;exitDx=0;exitDy=0;exitPerimeter=0;entryX=0;entryY=0.5;entryDx=0;entryDy=0;" edge="1" parent="1" source="FvSjRpcj_BzHOOQhWM-Y-66" target="FvSjRpcj_BzHOOQhWM-Y-78">
          <mxGeometry width="50" height="50" relative="1" as="geometry">
            <mxPoint x="1185.22" y="400.81999999999994" as="sourcePoint" />
            <mxPoint x="1220" y="400" as="targetPoint" />
          </mxGeometry>
        </mxCell>
        <mxCell id="FvSjRpcj_BzHOOQhWM-Y-82" value="Play Audio" style="whiteSpace=wrap;html=1;rounded=1;" vertex="1" parent="1">
          <mxGeometry x="1360" y="360" width="120" height="40" as="geometry" />
        </mxCell>
        <mxCell id="FvSjRpcj_BzHOOQhWM-Y-84" value="Download" style="whiteSpace=wrap;html=1;rounded=1;" vertex="1" parent="1">
          <mxGeometry x="1370" y="420" width="120" height="40" as="geometry" />
        </mxCell>
        <mxCell id="FvSjRpcj_BzHOOQhWM-Y-86" value="Select Lectures" style="text;html=1;align=center;verticalAlign=middle;resizable=0;points=[];autosize=1;strokeColor=none;fillColor=none;" vertex="1" parent="1">
          <mxGeometry x="1290" y="450" width="110" height="30" as="geometry" />
        </mxCell>
        <mxCell id="FvSjRpcj_BzHOOQhWM-Y-89" style="edgeStyle=orthogonalEdgeStyle;rounded=0;orthogonalLoop=1;jettySize=auto;html=1;entryX=0.5;entryY=1;entryDx=0;entryDy=0;" edge="1" parent="1" source="FvSjRpcj_BzHOOQhWM-Y-87" target="FvSjRpcj_BzHOOQhWM-Y-78">
          <mxGeometry relative="1" as="geometry">
            <Array as="points">
              <mxPoint x="1480" y="580" />
              <mxPoint x="1270" y="580" />
            </Array>
          </mxGeometry>
        </mxCell>
        <mxCell id="FvSjRpcj_BzHOOQhWM-Y-90" value="No" style="edgeLabel;html=1;align=center;verticalAlign=middle;resizable=0;points=[];" vertex="1" connectable="0" parent="FvSjRpcj_BzHOOQhWM-Y-89">
          <mxGeometry x="-0.1452" relative="1" as="geometry">
            <mxPoint as="offset" />
          </mxGeometry>
        </mxCell>
        <mxCell id="FvSjRpcj_BzHOOQhWM-Y-93" value="" style="edgeStyle=orthogonalEdgeStyle;rounded=0;orthogonalLoop=1;jettySize=auto;html=1;" edge="1" parent="1" source="FvSjRpcj_BzHOOQhWM-Y-87" target="FvSjRpcj_BzHOOQhWM-Y-92">
          <mxGeometry relative="1" as="geometry" />
        </mxCell>
        <mxCell id="FvSjRpcj_BzHOOQhWM-Y-87" value="Sure?" style="rhombus;whiteSpace=wrap;html=1;rounded=1;" vertex="1" parent="1">
          <mxGeometry x="1430" y="480" width="100" height="80" as="geometry" />
        </mxCell>
        <mxCell id="FvSjRpcj_BzHOOQhWM-Y-91" value="Select Lectures" style="text;html=1;align=center;verticalAlign=middle;resizable=0;points=[];autosize=1;strokeColor=none;fillColor=none;" vertex="1" parent="1">
          <mxGeometry x="1330" y="520" width="110" height="30" as="geometry" />
        </mxCell>
        <mxCell id="FvSjRpcj_BzHOOQhWM-Y-92" value="Delete" style="whiteSpace=wrap;html=1;rounded=1;" vertex="1" parent="1">
          <mxGeometry x="1600" y="500" width="120" height="40" as="geometry" />
        </mxCell>
        <mxCell id="FvSjRpcj_BzHOOQhWM-Y-94" value="Resources" style="whiteSpace=wrap;html=1;rounded=1;" vertex="1" parent="1">
          <mxGeometry x="1390" y="690" width="120" height="40" as="geometry" />
        </mxCell>
        <mxCell id="FvSjRpcj_BzHOOQhWM-Y-95" value="Notes" style="whiteSpace=wrap;html=1;rounded=1;" vertex="1" parent="1">
          <mxGeometry x="1540" y="690" width="120" height="40" as="geometry" />
        </mxCell>
        <mxCell id="FvSjRpcj_BzHOOQhWM-Y-96" value="Discussion" style="whiteSpace=wrap;html=1;rounded=1;" vertex="1" parent="1">
          <mxGeometry x="1680" y="690" width="120" height="40" as="geometry" />
        </mxCell>
        <mxCell id="FvSjRpcj_BzHOOQhWM-Y-101" value="" style="swimlane;startSize=0;" vertex="1" parent="1">
          <mxGeometry x="1380" y="660" width="440" height="100" as="geometry" />
        </mxCell>
        <mxCell id="FvSjRpcj_BzHOOQhWM-Y-109" value="" style="endArrow=classic;html=1;rounded=0;exitX=0.5;exitY=1;exitDx=0;exitDy=0;entryX=0.61;entryY=-0.093;entryDx=0;entryDy=0;entryPerimeter=0;" edge="1" parent="FvSjRpcj_BzHOOQhWM-Y-101">
          <mxGeometry width="50" height="50" relative="1" as="geometry">
            <mxPoint x="219.5" y="72.78999999999996" as="sourcePoint" />
            <mxPoint x="220.5" y="130" as="targetPoint" />
          </mxGeometry>
        </mxCell>
        <mxCell id="FvSjRpcj_BzHOOQhWM-Y-110" value="" style="endArrow=classic;html=1;rounded=0;exitX=0.5;exitY=1;exitDx=0;exitDy=0;entryX=0.422;entryY=-0.08;entryDx=0;entryDy=0;entryPerimeter=0;" edge="1" parent="FvSjRpcj_BzHOOQhWM-Y-101" target="FvSjRpcj_BzHOOQhWM-Y-114">
          <mxGeometry width="50" height="50" relative="1" as="geometry">
            <mxPoint x="370" y="72.78999999999996" as="sourcePoint" />
            <mxPoint x="370" y="150" as="targetPoint" />
          </mxGeometry>
        </mxCell>
        <mxCell id="FvSjRpcj_BzHOOQhWM-Y-102" value="Play" style="text;html=1;align=center;verticalAlign=middle;resizable=0;points=[];autosize=1;strokeColor=none;fillColor=none;" vertex="1" parent="1">
          <mxGeometry x="1565" y="655" width="50" height="30" as="geometry" />
        </mxCell>
        <mxCell id="FvSjRpcj_BzHOOQhWM-Y-103" value="" style="endArrow=classic;html=1;rounded=0;entryX=0;entryY=0.5;entryDx=0;entryDy=0;exitX=1.013;exitY=0.95;exitDx=0;exitDy=0;exitPerimeter=0;" edge="1" parent="1" source="FvSjRpcj_BzHOOQhWM-Y-66" target="FvSjRpcj_BzHOOQhWM-Y-101">
          <mxGeometry width="50" height="50" relative="1" as="geometry">
            <mxPoint x="1250" y="750" as="sourcePoint" />
            <mxPoint x="1300" y="700" as="targetPoint" />
            <Array as="points">
              <mxPoint x="1250" y="611" />
              <mxPoint x="1250" y="710" />
            </Array>
          </mxGeometry>
        </mxCell>
        <mxCell id="FvSjRpcj_BzHOOQhWM-Y-104" value="" style="endArrow=classic;startArrow=classic;html=1;rounded=0;entryX=1;entryY=0.5;entryDx=0;entryDy=0;" edge="1" parent="1" target="FvSjRpcj_BzHOOQhWM-Y-101">
          <mxGeometry width="50" height="50" relative="1" as="geometry">
            <mxPoint x="1870" y="710" as="sourcePoint" />
            <mxPoint x="1730" y="720" as="targetPoint" />
          </mxGeometry>
        </mxCell>
        <mxCell id="FvSjRpcj_BzHOOQhWM-Y-105" value="Play" style="whiteSpace=wrap;html=1;rounded=1;" vertex="1" parent="1">
          <mxGeometry x="1870" y="690" width="120" height="40" as="geometry" />
        </mxCell>
        <mxCell id="FvSjRpcj_BzHOOQhWM-Y-106" value="Open" style="whiteSpace=wrap;html=1;rounded=1;" vertex="1" parent="1">
          <mxGeometry x="1390" y="790" width="100" height="30" as="geometry" />
        </mxCell>
        <mxCell id="FvSjRpcj_BzHOOQhWM-Y-107" value="Add" style="whiteSpace=wrap;html=1;rounded=1;" vertex="1" parent="1">
          <mxGeometry x="1540" y="790" width="100" height="30" as="geometry" />
        </mxCell>
        <mxCell id="FvSjRpcj_BzHOOQhWM-Y-108" value="" style="endArrow=classic;html=1;rounded=0;exitX=0.5;exitY=1;exitDx=0;exitDy=0;entryX=0.61;entryY=-0.093;entryDx=0;entryDy=0;entryPerimeter=0;" edge="1" parent="1" source="FvSjRpcj_BzHOOQhWM-Y-94" target="FvSjRpcj_BzHOOQhWM-Y-106">
          <mxGeometry width="50" height="50" relative="1" as="geometry">
            <mxPoint x="1500" y="840" as="sourcePoint" />
            <mxPoint x="1550" y="790" as="targetPoint" />
          </mxGeometry>
        </mxCell>
        <mxCell id="FvSjRpcj_BzHOOQhWM-Y-112" value="Comment&amp;nbsp;" style="whiteSpace=wrap;html=1;rounded=1;" vertex="1" parent="1">
          <mxGeometry x="1640" y="820" width="100" height="30" as="geometry" />
        </mxCell>
        <mxCell id="FvSjRpcj_BzHOOQhWM-Y-113" value="Like" style="whiteSpace=wrap;html=1;rounded=1;" vertex="1" parent="1">
          <mxGeometry x="1790" y="820" width="100" height="30" as="geometry" />
        </mxCell>
        <mxCell id="FvSjRpcj_BzHOOQhWM-Y-114" value="Add" style="whiteSpace=wrap;html=1;rounded=1;" vertex="1" parent="1">
          <mxGeometry x="1710" y="870" width="100" height="30" as="geometry" />
        </mxCell>
        <mxCell id="FvSjRpcj_BzHOOQhWM-Y-115" value="" style="endArrow=classic;html=1;rounded=0;entryX=0.5;entryY=0;entryDx=0;entryDy=0;" edge="1" parent="1" target="FvSjRpcj_BzHOOQhWM-Y-112">
          <mxGeometry width="50" height="50" relative="1" as="geometry">
            <mxPoint x="1750" y="780" as="sourcePoint" />
            <mxPoint x="1860" y="880" as="targetPoint" />
            <Array as="points">
              <mxPoint x="1690" y="780" />
            </Array>
          </mxGeometry>
        </mxCell>
        <mxCell id="FvSjRpcj_BzHOOQhWM-Y-116" value="" style="endArrow=classic;html=1;rounded=0;" edge="1" parent="1">
          <mxGeometry width="50" height="50" relative="1" as="geometry">
            <mxPoint x="1750" y="780" as="sourcePoint" />
            <mxPoint x="1850" y="820" as="targetPoint" />
            <Array as="points">
              <mxPoint x="1850" y="780" />
            </Array>
          </mxGeometry>
        </mxCell>
        <mxCell id="FvSjRpcj_BzHOOQhWM-Y-118" value="" style="endArrow=classic;startArrow=classic;html=1;rounded=0;entryX=0.429;entryY=1.044;entryDx=0;entryDy=0;entryPerimeter=0;exitX=0.5;exitY=0;exitDx=0;exitDy=0;" edge="1" parent="1" source="FvSjRpcj_BzHOOQhWM-Y-9" target="FvSjRpcj_BzHOOQhWM-Y-27">
          <mxGeometry width="50" height="50" relative="1" as="geometry">
            <mxPoint x="900" y="340" as="sourcePoint" />
            <mxPoint x="950" y="290" as="targetPoint" />
          </mxGeometry>
        </mxCell>
        <mxCell id="FvSjRpcj_BzHOOQhWM-Y-120" value="" style="endArrow=classic;html=1;rounded=0;exitX=0.5;exitY=1;exitDx=0;exitDy=0;entryX=0.5;entryY=0;entryDx=0;entryDy=0;" edge="1" parent="1" source="FvSjRpcj_BzHOOQhWM-Y-9" target="FvSjRpcj_BzHOOQhWM-Y-10">
          <mxGeometry width="50" height="50" relative="1" as="geometry">
            <mxPoint x="900" y="340" as="sourcePoint" />
            <mxPoint x="950" y="290" as="targetPoint" />
          </mxGeometry>
        </mxCell>
        <mxCell id="FvSjRpcj_BzHOOQhWM-Y-121" value="" style="endArrow=classic;html=1;rounded=0;entryX=0.5;entryY=0;entryDx=0;entryDy=0;" edge="1" parent="1" target="FvSjRpcj_BzHOOQhWM-Y-11">
          <mxGeometry width="50" height="50" relative="1" as="geometry">
            <mxPoint x="485" y="150" as="sourcePoint" />
            <mxPoint x="495" y="120" as="targetPoint" />
          </mxGeometry>
        </mxCell>
        <mxCell id="FvSjRpcj_BzHOOQhWM-Y-122" value="" style="endArrow=classic;html=1;rounded=0;exitX=0.5;exitY=1;exitDx=0;exitDy=0;entryX=0.5;entryY=0;entryDx=0;entryDy=0;" edge="1" parent="1" source="FvSjRpcj_BzHOOQhWM-Y-11" target="FvSjRpcj_BzHOOQhWM-Y-12">
          <mxGeometry width="50" height="50" relative="1" as="geometry">
            <mxPoint x="505" y="110" as="sourcePoint" />
            <mxPoint x="505" y="130" as="targetPoint" />
          </mxGeometry>
        </mxCell>
        <mxCell id="FvSjRpcj_BzHOOQhWM-Y-123" value="" style="endArrow=classic;startArrow=classic;html=1;rounded=0;exitX=0.38;exitY=0;exitDx=0;exitDy=0;entryX=0.133;entryY=1.061;entryDx=0;entryDy=0;entryPerimeter=0;exitPerimeter=0;" edge="1" parent="1" source="FvSjRpcj_BzHOOQhWM-Y-21" target="FvSjRpcj_BzHOOQhWM-Y-27">
          <mxGeometry width="50" height="50" relative="1" as="geometry">
            <mxPoint x="495" y="60" as="sourcePoint" />
            <mxPoint x="493.0799999999999" y="22.639999999999873" as="targetPoint" />
          </mxGeometry>
        </mxCell>
      </root>
    </mxGraphModel>
  </diagram>
</mxfile>
